<mxfile host="app.diagrams.net" modified="2021-09-05T08:17:36.885Z" agent="5.0 (Windows NT 10.0; Win64; x64) AppleWebKit/537.36 (KHTML, like Gecko) Chrome/92.0.4515.159 Safari/537.36" etag="w27dT9UY4n12Y2TkB9zE" version="15.0.6" type="github">
  <diagram id="kgnJdq5VQi98LMx4Vff6" name="Page-1">
    <mxGraphModel dx="1422" dy="762" grid="1" gridSize="10" guides="1" tooltips="1" connect="1" arrows="1" fold="1" page="1" pageScale="1" pageWidth="1169" pageHeight="827" math="0" shadow="0">
      <root>
        <mxCell id="0" />
        <mxCell id="1" parent="0" />
        <mxCell id="YMthBukLCyZc6VyMMKoa-46" value="Software Delivery" style="rounded=0;whiteSpace=wrap;html=1;container=1;verticalAlign=top;fontSize=37;labelBorderColor=none;fillColor=#f5f5f5;strokeColor=#666666;fontColor=#333333;fontFamily=Verdana;" parent="1" vertex="1">
          <mxGeometry x="410" y="120" width="710" height="470" as="geometry">
            <mxRectangle x="360" y="240" width="50" height="40" as="alternateBounds" />
          </mxGeometry>
        </mxCell>
        <mxCell id="YMthBukLCyZc6VyMMKoa-2" value="Process" style="shape=process;whiteSpace=wrap;html=1;backgroundOutline=1;fillColor=#dae8fc;strokeColor=#6c8ebf;rounded=1;" parent="YMthBukLCyZc6VyMMKoa-46" vertex="1">
          <mxGeometry x="298.6470588235294" y="130" width="120" height="60" as="geometry" />
        </mxCell>
        <mxCell id="YMthBukLCyZc6VyMMKoa-3" value="People" style="shape=umlActor;verticalLabelPosition=bottom;verticalAlign=top;html=1;outlineConnect=0;" parent="YMthBukLCyZc6VyMMKoa-46" vertex="1">
          <mxGeometry x="183.64705882352942" y="130" width="30" height="60" as="geometry" />
        </mxCell>
        <mxCell id="YMthBukLCyZc6VyMMKoa-18" value="CI/CD" style="rounded=1;whiteSpace=wrap;html=1;fontStyle=2;sketch=1;glass=0;fillColor=#dae8fc;strokeColor=#6c8ebf;" parent="YMthBukLCyZc6VyMMKoa-46" vertex="1">
          <mxGeometry x="90" y="235" width="120" height="40" as="geometry" />
        </mxCell>
        <mxCell id="YMthBukLCyZc6VyMMKoa-25" value="Containers" style="rounded=1;whiteSpace=wrap;html=1;fontStyle=2;sketch=1;glass=0;fillColor=#dae8fc;strokeColor=#6c8ebf;" parent="YMthBukLCyZc6VyMMKoa-46" vertex="1">
          <mxGeometry x="230" y="235" width="120" height="40" as="geometry" />
        </mxCell>
        <mxCell id="YMthBukLCyZc6VyMMKoa-31" value="Continuous Ops" style="rounded=1;whiteSpace=wrap;html=1;fontStyle=2;sketch=1;glass=0;fillColor=#dae8fc;strokeColor=#6c8ebf;" parent="YMthBukLCyZc6VyMMKoa-46" vertex="1">
          <mxGeometry x="370" y="235" width="120" height="40" as="geometry" />
        </mxCell>
        <mxCell id="YMthBukLCyZc6VyMMKoa-32" value="Version&lt;br&gt;branching" style="rounded=1;whiteSpace=wrap;html=1;fontStyle=2;sketch=1;glass=0;fillColor=#dae8fc;strokeColor=#6c8ebf;" parent="YMthBukLCyZc6VyMMKoa-46" vertex="1">
          <mxGeometry x="510" y="235" width="120" height="40" as="geometry" />
        </mxCell>
        <mxCell id="YMthBukLCyZc6VyMMKoa-33" value="Platform" style="rounded=1;whiteSpace=wrap;html=1;fontStyle=2;sketch=1;glass=0;fillColor=#dae8fc;strokeColor=#6c8ebf;" parent="YMthBukLCyZc6VyMMKoa-46" vertex="1">
          <mxGeometry x="90" y="295" width="120" height="40" as="geometry" />
        </mxCell>
        <mxCell id="YMthBukLCyZc6VyMMKoa-34" value="Agile WoW" style="rounded=1;whiteSpace=wrap;html=1;fontStyle=2;sketch=1;glass=0;fillColor=#dae8fc;strokeColor=#6c8ebf;" parent="YMthBukLCyZc6VyMMKoa-46" vertex="1">
          <mxGeometry x="230" y="295" width="120" height="40" as="geometry" />
        </mxCell>
        <mxCell id="YMthBukLCyZc6VyMMKoa-35" value="Teams" style="rounded=1;whiteSpace=wrap;html=1;fontStyle=2;sketch=1;glass=0;fillColor=#dae8fc;strokeColor=#6c8ebf;" parent="YMthBukLCyZc6VyMMKoa-46" vertex="1">
          <mxGeometry x="370" y="295" width="120" height="40" as="geometry" />
        </mxCell>
        <mxCell id="YMthBukLCyZc6VyMMKoa-36" value="Continuous&lt;br&gt;Testing" style="rounded=1;whiteSpace=wrap;html=1;fontStyle=2;sketch=1;glass=0;fillColor=#dae8fc;strokeColor=#6c8ebf;" parent="YMthBukLCyZc6VyMMKoa-46" vertex="1">
          <mxGeometry x="510" y="295" width="120" height="40" as="geometry" />
        </mxCell>
        <mxCell id="YMthBukLCyZc6VyMMKoa-37" value="Observability" style="rounded=1;whiteSpace=wrap;html=1;fontStyle=2;sketch=1;glass=0;fillColor=#dae8fc;strokeColor=#6c8ebf;" parent="YMthBukLCyZc6VyMMKoa-46" vertex="1">
          <mxGeometry x="90" y="355" width="120" height="40" as="geometry" />
        </mxCell>
        <mxCell id="YMthBukLCyZc6VyMMKoa-38" value="DevOps" style="rounded=1;whiteSpace=wrap;html=1;fontStyle=2;sketch=1;glass=0;fillColor=#dae8fc;strokeColor=#6c8ebf;" parent="YMthBukLCyZc6VyMMKoa-46" vertex="1">
          <mxGeometry x="230" y="355" width="120" height="40" as="geometry" />
        </mxCell>
        <mxCell id="YMthBukLCyZc6VyMMKoa-39" value="GitOps" style="rounded=1;whiteSpace=wrap;html=1;fontStyle=2;sketch=1;glass=0;fillColor=#dae8fc;strokeColor=#6c8ebf;" parent="YMthBukLCyZc6VyMMKoa-46" vertex="1">
          <mxGeometry x="370" y="355" width="120" height="40" as="geometry" />
        </mxCell>
        <mxCell id="YMthBukLCyZc6VyMMKoa-40" value="Architecture" style="rounded=1;whiteSpace=wrap;html=1;fontStyle=2;sketch=1;glass=0;fillColor=#dae8fc;strokeColor=#6c8ebf;" parent="YMthBukLCyZc6VyMMKoa-46" vertex="1">
          <mxGeometry x="510" y="355" width="120" height="40" as="geometry" />
        </mxCell>
        <mxCell id="YMthBukLCyZc6VyMMKoa-41" value="Interfacing" style="rounded=1;whiteSpace=wrap;html=1;fontStyle=2;sketch=1;glass=0;fillColor=#dae8fc;strokeColor=#6c8ebf;" parent="YMthBukLCyZc6VyMMKoa-46" vertex="1">
          <mxGeometry x="90" y="412.5" width="120" height="40" as="geometry" />
        </mxCell>
        <mxCell id="YMthBukLCyZc6VyMMKoa-42" value="History" style="rounded=1;whiteSpace=wrap;html=1;fontStyle=2;sketch=1;glass=0;fillColor=#dae8fc;strokeColor=#6c8ebf;" parent="YMthBukLCyZc6VyMMKoa-46" vertex="1">
          <mxGeometry x="230" y="412.5" width="120" height="40" as="geometry" />
        </mxCell>
        <mxCell id="YMthBukLCyZc6VyMMKoa-43" value="Quality buildin" style="rounded=1;whiteSpace=wrap;html=1;fontStyle=2;sketch=1;glass=0;fillColor=#dae8fc;strokeColor=#6c8ebf;" parent="YMthBukLCyZc6VyMMKoa-46" vertex="1">
          <mxGeometry x="370" y="412.5" width="120" height="40" as="geometry" />
        </mxCell>
        <mxCell id="YMthBukLCyZc6VyMMKoa-44" value="Continuous Secure" style="rounded=1;whiteSpace=wrap;html=1;fontStyle=2;sketch=1;glass=0;fillColor=#dae8fc;strokeColor=#6c8ebf;" parent="YMthBukLCyZc6VyMMKoa-46" vertex="1">
          <mxGeometry x="510" y="412.5" width="120" height="40" as="geometry" />
        </mxCell>
        <mxCell id="YMthBukLCyZc6VyMMKoa-49" value="Speed" style="rounded=1;whiteSpace=wrap;html=1;shadow=1;glass=0;labelBackgroundColor=none;sketch=0;fontFamily=Verdana;fontSize=14;verticalAlign=top;fillColor=#fff2cc;strokeColor=#d6b656;" parent="YMthBukLCyZc6VyMMKoa-46" vertex="1">
          <mxGeometry x="560" y="60" width="140" height="30" as="geometry" />
        </mxCell>
        <mxCell id="YMthBukLCyZc6VyMMKoa-53" value="Automated" style="rounded=1;whiteSpace=wrap;html=1;shadow=1;glass=0;labelBackgroundColor=none;sketch=0;fontFamily=Verdana;fontSize=14;verticalAlign=top;fillColor=#fff2cc;strokeColor=#d6b656;" parent="YMthBukLCyZc6VyMMKoa-46" vertex="1">
          <mxGeometry x="285" y="60" width="140" height="30" as="geometry" />
        </mxCell>
        <mxCell id="mpT-UXefH-h46nRKk-8Z-4" value="Product" style="text;html=1;strokeColor=none;fillColor=none;align=center;verticalAlign=middle;whiteSpace=wrap;rounded=0;shadow=1;glass=0;sketch=1;" vertex="1" parent="YMthBukLCyZc6VyMMKoa-46">
          <mxGeometry x="520" y="200" width="40" height="20" as="geometry" />
        </mxCell>
        <mxCell id="YMthBukLCyZc6VyMMKoa-12" value="Continuous Learning" style="rounded=1;whiteSpace=wrap;html=1;fillColor=#f5f5f5;strokeColor=#666666;fontColor=#333333;" parent="1" vertex="1">
          <mxGeometry x="410" y="600" width="230" height="30" as="geometry" />
        </mxCell>
        <mxCell id="YMthBukLCyZc6VyMMKoa-24" value="showcases" style="rounded=1;whiteSpace=wrap;html=1;glass=0;shadow=1;sketch=1;fillColor=#d5e8d4;strokeColor=#82b366;" parent="1" vertex="1">
          <mxGeometry x="200" y="410" width="120" height="40" as="geometry" />
        </mxCell>
        <mxCell id="YMthBukLCyZc6VyMMKoa-27" value="Blogs" style="rounded=1;whiteSpace=wrap;html=1;glass=0;shadow=1;sketch=1;fillColor=#d5e8d4;strokeColor=#82b366;" parent="1" vertex="1">
          <mxGeometry x="70" y="410" width="120" height="40" as="geometry" />
        </mxCell>
        <mxCell id="YMthBukLCyZc6VyMMKoa-28" value="GitHub" style="rounded=1;whiteSpace=wrap;html=1;glass=0;shadow=1;sketch=1;fillColor=#d5e8d4;strokeColor=#82b366;" parent="1" vertex="1">
          <mxGeometry x="70" y="550" width="120" height="40" as="geometry" />
        </mxCell>
        <mxCell id="YMthBukLCyZc6VyMMKoa-48" value="" style="shape=mxgraph.signs.travel.present;html=1;pointerEvents=1;fillColor=#d5e8d4;strokeColor=#82b366;verticalLabelPosition=bottom;verticalAlign=top;align=center;rounded=1;glass=0;labelBackgroundColor=none;sketch=0;fontSize=37;noLabel=1;shadow=1;" parent="1" vertex="1">
          <mxGeometry x="912" y="219" width="76" height="98" as="geometry" />
        </mxCell>
        <mxCell id="YMthBukLCyZc6VyMMKoa-50" value="Change" style="rounded=1;whiteSpace=wrap;html=1;shadow=1;glass=0;labelBackgroundColor=none;sketch=0;fontFamily=Verdana;fontSize=14;verticalAlign=top;fillColor=#fff2cc;strokeColor=#d6b656;" parent="1" vertex="1">
          <mxGeometry x="430" y="180" width="140" height="30" as="geometry" />
        </mxCell>
        <mxCell id="YMthBukLCyZc6VyMMKoa-51" value="Customer first" style="rounded=1;whiteSpace=wrap;html=1;shadow=1;glass=0;labelBackgroundColor=none;sketch=0;fontFamily=Verdana;fontSize=14;verticalAlign=top;fillColor=#d5e8d4;strokeColor=#82b366;" parent="1" vertex="1">
          <mxGeometry x="540" y="60" width="140" height="30" as="geometry" />
        </mxCell>
        <mxCell id="YMthBukLCyZc6VyMMKoa-52" value="Done= Production" style="rounded=1;whiteSpace=wrap;html=1;shadow=1;glass=0;labelBackgroundColor=none;sketch=0;fontFamily=Verdana;fontSize=14;verticalAlign=top;fillColor=#d5e8d4;strokeColor=#82b366;" parent="1" vertex="1">
          <mxGeometry x="860" y="60" width="140" height="30" as="geometry" />
        </mxCell>
        <mxCell id="YMthBukLCyZc6VyMMKoa-54" value="Think Big - Act Small" style="rounded=1;whiteSpace=wrap;html=1;fillColor=#f5f5f5;strokeColor=#666666;fontColor=#333333;" parent="1" vertex="1">
          <mxGeometry x="650" y="600" width="240" height="30" as="geometry" />
        </mxCell>
        <mxCell id="YMthBukLCyZc6VyMMKoa-55" value="Agile" style="rounded=1;whiteSpace=wrap;html=1;fillColor=#f5f5f5;strokeColor=#666666;fontColor=#333333;" parent="1" vertex="1">
          <mxGeometry x="900" y="600" width="220" height="30" as="geometry" />
        </mxCell>
        <mxCell id="YMthBukLCyZc6VyMMKoa-58" value="Added Value" style="rounded=1;whiteSpace=wrap;html=1;shadow=1;glass=0;labelBackgroundColor=none;sketch=0;fontFamily=Verdana;fontSize=14;verticalAlign=top;fillColor=#d5e8d4;strokeColor=#82b366;" parent="1" vertex="1">
          <mxGeometry x="700" y="60" width="140" height="30" as="geometry" />
        </mxCell>
        <mxCell id="5YKw93YFWr10B1o-Hw19-1" value="" style="group;fillColor=#dae8fc;strokeColor=#6c8ebf;rounded=1;shadow=1;glass=0;sketch=1;" parent="1" vertex="1" connectable="0">
          <mxGeometry x="120" y="250" width="120" height="120" as="geometry" />
        </mxCell>
        <mxCell id="YMthBukLCyZc6VyMMKoa-19" value="principles" style="rounded=1;whiteSpace=wrap;html=1;fillColor=#dae8fc;strokeColor=#6c8ebf;shadow=1;glass=0;sketch=1;" parent="5YKw93YFWr10B1o-Hw19-1" vertex="1">
          <mxGeometry y="32" width="120" height="24" as="geometry" />
        </mxCell>
        <mxCell id="YMthBukLCyZc6VyMMKoa-21" value="concepts" style="rounded=1;whiteSpace=wrap;html=1;fillColor=#dae8fc;strokeColor=#6c8ebf;shadow=1;glass=0;sketch=1;" parent="5YKw93YFWr10B1o-Hw19-1" vertex="1">
          <mxGeometry y="64" width="120" height="24" as="geometry" />
        </mxCell>
        <mxCell id="YMthBukLCyZc6VyMMKoa-22" value="practices" style="rounded=1;whiteSpace=wrap;html=1;fillColor=#dae8fc;strokeColor=#6c8ebf;shadow=1;glass=0;sketch=1;" parent="5YKw93YFWr10B1o-Hw19-1" vertex="1">
          <mxGeometry y="96" width="120" height="24" as="geometry" />
        </mxCell>
        <mxCell id="YMthBukLCyZc6VyMMKoa-23" value="goals" style="rounded=1;whiteSpace=wrap;html=1;fillColor=#dae8fc;strokeColor=#6c8ebf;shadow=1;glass=0;sketch=1;" parent="5YKw93YFWr10B1o-Hw19-1" vertex="1">
          <mxGeometry width="120" height="24" as="geometry" />
        </mxCell>
        <mxCell id="5YKw93YFWr10B1o-Hw19-2" value="" style="group" parent="1" vertex="1" connectable="0">
          <mxGeometry x="90" y="120" width="180" height="80" as="geometry" />
        </mxCell>
        <mxCell id="YMthBukLCyZc6VyMMKoa-5" value="Why" style="rounded=1;whiteSpace=wrap;html=1;sketch=1;shadow=1;fillColor=#fff2cc;strokeColor=#d6b656;" parent="5YKw93YFWr10B1o-Hw19-2" vertex="1">
          <mxGeometry width="180" height="20" as="geometry" />
        </mxCell>
        <mxCell id="YMthBukLCyZc6VyMMKoa-6" value="What" style="rounded=1;whiteSpace=wrap;html=1;sketch=1;shadow=1;fillColor=#fff2cc;strokeColor=#d6b656;" parent="5YKw93YFWr10B1o-Hw19-2" vertex="1">
          <mxGeometry y="30" width="180" height="20" as="geometry" />
        </mxCell>
        <mxCell id="YMthBukLCyZc6VyMMKoa-7" value="How" style="rounded=1;whiteSpace=wrap;html=1;sketch=1;shadow=1;fillColor=#fff2cc;strokeColor=#d6b656;" parent="5YKw93YFWr10B1o-Hw19-2" vertex="1">
          <mxGeometry y="60" width="180" height="20" as="geometry" />
        </mxCell>
        <mxCell id="5YKw93YFWr10B1o-Hw19-11" value="CD model" style="swimlane;fontStyle=0;childLayout=stackLayout;horizontal=1;startSize=26;horizontalStack=0;resizeParent=1;resizeParentMax=0;resizeLast=0;collapsible=1;marginBottom=0;rounded=1;shadow=0;glass=0;sketch=0;" parent="1" vertex="1">
          <mxGeometry x="30" y="690" width="450" height="104" as="geometry" />
        </mxCell>
        <mxCell id="5YKw93YFWr10B1o-Hw19-12" value="https://github.com/Sim007/ContinuousDelivery/blob/main/Pictures/CDModel.drawio" style="text;strokeColor=none;fillColor=none;align=left;verticalAlign=top;spacingLeft=4;spacingRight=4;overflow=hidden;rotatable=0;points=[[0,0.5],[1,0.5]];portConstraint=eastwest;" parent="5YKw93YFWr10B1o-Hw19-11" vertex="1">
          <mxGeometry y="26" width="450" height="26" as="geometry" />
        </mxCell>
        <mxCell id="5YKw93YFWr10B1o-Hw19-13" value="Johannes Sim" style="text;strokeColor=none;fillColor=none;align=left;verticalAlign=top;spacingLeft=4;spacingRight=4;overflow=hidden;rotatable=0;points=[[0,0.5],[1,0.5]];portConstraint=eastwest;" parent="5YKw93YFWr10B1o-Hw19-11" vertex="1">
          <mxGeometry y="52" width="450" height="26" as="geometry" />
        </mxCell>
        <mxCell id="5YKw93YFWr10B1o-Hw19-14" value="4 september 2021" style="text;strokeColor=none;fillColor=none;align=left;verticalAlign=top;spacingLeft=4;spacingRight=4;overflow=hidden;rotatable=0;points=[[0,0.5],[1,0.5]];portConstraint=eastwest;" parent="5YKw93YFWr10B1o-Hw19-11" vertex="1">
          <mxGeometry y="78" width="450" height="26" as="geometry" />
        </mxCell>
        <mxCell id="5YKw93YFWr10B1o-Hw19-16" value="Presentations" style="rounded=1;whiteSpace=wrap;html=1;glass=0;shadow=1;sketch=1;fillColor=#d5e8d4;strokeColor=#82b366;" parent="1" vertex="1">
          <mxGeometry x="70" y="460" width="120" height="40" as="geometry" />
        </mxCell>
      </root>
    </mxGraphModel>
  </diagram>
</mxfile>
